<svg width="36" height="36" viewBox="0 0 36 36" fill="none" xmlns="http://www.w3.org/2000/svg">
<g clip-path="url(#clip0_1681_12639)">
<path fill-rule="evenodd" clip-rule="evenodd" d="M24.7349 13.0315H23.063V4.67192H13.0315V13.0315H4.67192V33.0945H3V11.3596H11.3596V3H24.7349V13.0315ZM28.3477 20.0565L31.2719 19.0932L33.0951 22.2926L30.8246 24.3223C30.859 24.7351 30.859 25.1479 30.8246 25.5951L33.0951 27.6936L31.2375 30.893L28.3133 29.9641C27.9693 30.2049 27.5909 30.4113 27.2125 30.5833L26.5588 33.5763H22.8779L22.2587 30.5489C21.8802 30.3769 21.5362 30.1705 21.1922 29.9297L18.2337 30.8586L16.376 27.6592L18.6465 25.5607C18.6121 25.1479 18.6121 24.7351 18.6465 24.2879L16.376 22.2582L18.2337 19.0588L21.1234 20.0221C21.4674 19.7812 21.8802 19.5404 22.2931 19.3684L22.9123 16.3755H26.5933L27.2125 19.4028C27.6253 19.5748 28.0037 19.7812 28.3477 20.0565ZM21.6738 24.9759C21.6738 26.6616 23.0499 28.0376 24.7356 28.0376C26.4212 28.0376 27.7973 26.6616 27.7973 24.9759C27.7973 23.2902 26.4212 21.9141 24.7356 21.9141C23.0499 21.9141 21.6738 23.2902 21.6738 24.9759ZM11.3596 16.3753H8.01575V19.7192H11.3596V16.3753ZM16.3753 6.34383H19.7192V9.68767H16.3753V6.34383ZM11.3596 23.063H8.01575V26.4068H11.3596V23.063ZM8.01575 29.7507H11.3596V33.0945H8.01575V29.7507Z" fill="white"/>
</g>
<defs>
<clipPath id="clip0_1681_12639">
<rect width="36" height="36" fill="white"/>
</clipPath>
</defs>
</svg>
