<svg width="36" height="36" viewBox="0 0 36 36" fill="none" xmlns="http://www.w3.org/2000/svg">
<g clip-path="url(#clip0_1681_12625)">
<path d="M30.4 4.4L28 2L25.6 4.4L23.2 2L20.8 4.4L18.4 2L16 4.4L13.6 2L11.2 4.4L8.8 2V24.4H4V29.2C4 31.856 6.144 34 8.8 34H28C30.656 34 32.8 31.856 32.8 29.2V2L30.4 4.4ZM23.2 30.8H8.8C7.92 30.8 7.2 30.08 7.2 29.2V27.6H23.2V30.8ZM29.6 29.2C29.6 30.08 28.88 30.8 28 30.8C27.12 30.8 26.4 30.08 26.4 29.2V24.4H12V6.8H29.6V29.2Z" fill="white"/>
<path d="M19.1998 22.8002V18.0002H22.3998V22.8002H26.3998V16.4002H28.7998L20.7998 9.2002L12.7998 16.4002H15.1998V22.8002H19.1998Z" fill="white"/>
</g>
<defs>
<clipPath id="clip0_1681_12625">
<rect width="36" height="36" fill="white"/>
</clipPath>
</defs>
</svg>
