<svg width="36" height="36" viewBox="0 0 36 36" fill="none" xmlns="http://www.w3.org/2000/svg">
<g clip-path="url(#clip0_1681_12654)">
<path fill-rule="evenodd" clip-rule="evenodd" d="M27.0409 5.03624H22.0344C21.3732 3.27522 19.6414 2 17.5948 2C15.5481 2 13.8163 3.27522 13.1551 5.03624H8.1487C6.41691 5.03624 5 6.40255 5 8.07249V30.8443C5 32.5142 6.41691 33.8805 8.1487 33.8805H17.768C16.8391 33.0152 16.0834 31.9829 15.5324 30.8443H8.1487V8.07249H11.2974V12.6268H23.8922V8.07249H27.0409V15.7845C28.1587 15.9364 29.2135 16.2552 30.1896 16.6954V8.07249C30.1896 6.40255 28.7727 5.03624 27.0409 5.03624ZM17.5948 8.07249C16.7289 8.07249 16.0204 7.38933 16.0204 6.55436C16.0204 5.7194 16.7289 5.03624 17.5948 5.03624C18.4607 5.03624 19.1691 5.7194 19.1691 6.55436C19.1691 7.38933 18.4607 8.07249 17.5948 8.07249ZM18.6843 15.2282H23.2457V17.0528H18.6843V15.2282ZM16.8598 13.8598H12.2984V18.4212H16.8598V13.8598ZM15.9475 17.5089H13.2106V14.7721H15.9475V17.5089ZM16.8598 20.2458H12.2984V24.8072H16.8598V20.2458ZM15.9475 23.8949H13.2106V21.1581H15.9475V23.8949ZM24.8421 17.0526V19.3541C28.2443 19.3541 31 22.1004 31 25.4912C31 26.6956 30.6459 27.8157 30.0455 28.7593L28.9217 27.6392C29.2681 27.0025 29.4605 26.266 29.4605 25.4912C29.4605 22.952 27.3899 20.8883 24.8421 20.8883V23.1898L21.7631 20.1212L24.8421 17.0526ZM20.2236 25.4912C20.2236 28.0305 22.2942 30.0941 24.8421 30.0941V27.7927L27.921 30.8612L24.8421 33.9298V31.6284C21.4398 31.6284 18.6842 28.882 18.6842 25.4912C18.6842 24.2868 19.0383 23.1668 19.6386 22.2232L20.7625 23.3432C20.4161 23.9799 20.2236 24.7164 20.2236 25.4912Z" fill="white"/>
</g>
<defs>
<clipPath id="clip0_1681_12654">
<rect width="36" height="36" fill="white"/>
</clipPath>
</defs>
</svg>
