<svg width="36" height="36" viewBox="0 0 36 36" fill="none" xmlns="http://www.w3.org/2000/svg">
<g clip-path="url(#clip0_1681_12632)">
<path d="M30.5833 8H6.41667C5.0875 8 4 9.05 4 10.3333V26.6667C4 27.95 5.0875 29 6.41667 29H30.5833C31.9125 29 32.9879 27.95 32.9879 26.6667L33 10.3333C33 9.05 31.9125 8 30.5833 8ZM30.5833 26.6667H6.41667V10.3333H30.5833V26.6667ZM14.875 18.5C16.8688 18.5 18.5 16.925 18.5 15C18.5 13.075 16.8688 11.5 14.875 11.5C12.8812 11.5 11.25 13.075 11.25 15C11.25 16.925 12.8812 18.5 14.875 18.5ZM14.875 13.8333C15.5396 13.8333 16.0833 14.3583 16.0833 15C16.0833 15.6417 15.5396 16.1667 14.875 16.1667C14.2104 16.1667 13.6667 15.6417 13.6667 15C13.6667 14.3583 14.2104 13.8333 14.875 13.8333ZM22.125 23.855C22.125 20.9383 17.3279 19.6783 14.875 19.6783C12.4221 19.6783 7.625 20.9383 7.625 23.855V25.5H22.125V23.855ZM10.6217 23.1667C11.5158 22.5833 13.3042 22 14.875 22C16.4458 22 18.2221 22.5717 19.1283 23.1667H10.6217Z" fill="white"/>
<path d="M29.5442 17.5317L28.3842 16.6683C28.4083 16.505 28.4325 16.33 28.4325 16.155C28.4325 15.98 28.4204 15.805 28.3842 15.6417L29.5321 14.7783C29.6288 14.6967 29.665 14.5567 29.5925 14.44L28.505 12.6317C28.4446 12.515 28.2996 12.48 28.1667 12.515L26.8254 13.04C26.5475 12.83 26.2454 12.655 25.9071 12.5267L25.7017 11.15C25.6896 11.01 25.5688 10.9167 25.4479 10.9167H23.285C23.1521 10.9167 23.0313 11.01 23.0192 11.1383L22.8138 12.515C22.4875 12.655 22.1733 12.8183 21.8954 13.0283L20.5542 12.5033C20.4333 12.4567 20.2883 12.5033 20.2158 12.62L19.1283 14.4283C19.0679 14.545 19.08 14.685 19.1888 14.7667L20.3367 15.63C20.3125 15.7933 20.3004 15.9683 20.3004 16.1433C20.3004 16.3183 20.3125 16.4933 20.3367 16.6567L19.1888 17.52C19.0921 17.6017 19.0558 17.7417 19.1283 17.8583L20.2158 19.6667C20.2763 19.7833 20.4213 19.8183 20.5542 19.7833L21.8954 19.2583C22.1733 19.4683 22.4754 19.6433 22.8138 19.7717L23.0192 21.1483C23.0433 21.2767 23.1521 21.37 23.285 21.37H25.4479C25.5808 21.37 25.7017 21.2767 25.7138 21.1483L25.9192 19.7717C26.2454 19.6317 26.5596 19.4683 26.8254 19.2583L28.1788 19.7833C28.2996 19.83 28.4446 19.7833 28.5171 19.6667L29.6046 17.8583C29.6771 17.7533 29.6408 17.6133 29.5442 17.5317ZM24.3604 17.7183C23.4663 17.7183 22.7292 17.0183 22.7292 16.1433C22.7292 15.2683 23.4542 14.5683 24.3604 14.5683C25.2667 14.5683 25.9917 15.2683 25.9917 16.1433C25.9917 17.0183 25.2546 17.7183 24.3604 17.7183Z" fill="white"/>
</g>
<defs>
<clipPath id="clip0_1681_12632">
<rect width="36" height="36" fill="white"/>
</clipPath>
</defs>
</svg>
